{"asset":{"generator":"3D Builder","version":"2.0"},"scene":0,"scenes":[{"nodes":[0]}],"nodes":[{"children":[1,2,3]},{"mesh":0,"matrix":[0.39370077848434448,0,0,0,0,-4.693279009870821E-8,-0.39370071887969971,0,0,0.39370071887969971,-4.693279009870821E-8,0,0.081492535769939423,0.0089637720957398415,-0.056029651314020157,1]},{"mesh":1,"matrix":[0.39370077848434448,0,0,0,0,-4.693279009870821E-8,-0.39370071887969971,0,0,0.39370071887969971,-4.693279009870821E-8,0,0.081492535769939423,0.0089637720957398415,-0.056029651314020157,1]},{"mesh":2,"matrix":[0.39370077848434448,0,0,0,0,-4.693279009870821E-8,-0.39370071887969971,0,0,0.39370071887969971,-4.693279009870821E-8,0,0.081492535769939423,0.0089637720957398415,-0.056029651314020157,1]}],"meshes":[{"primitives":[{"attributes":{"POSITION":0,"TEXCOORD_0":1},"mode":4,"indices":2,"material":0}]},{"primitives":[{"attributes":{"POSITION":3,"TEXCOORD_0":4},"mode":4,"indices":5,"material":0}]},{"primitives":[{"attributes":{"POSITION":6,"TEXCOORD_0":7},"mode":4,"indices":8,"material":0}]}],"materials":[{"pbrMetallicRoughness":{"baseColorFactor":[1,1,1,1],"metallicFactor":0,"roughnessFactor":1,"baseColorTexture":{"index":0,"texCoord":0}},"alphaMode":"OPAQUE"}],"textures":[{"source":0,"sampler":0}],"images":[{"uri":"8192_001.jpg"}],"samplers":[{"magFilter":9729,"wrapS":10497,"wrapT":10497}],"accessors":[{"bufferView":0,"byteOffset":0,"count":26620,"componentType":5126,"type":"VEC3","min":[-0.024449177086353302,0.12451417744159698,-0.017637200653553009],"max":[0.02716362476348877,0.32121178507804871,-0.00087319948943331838]},{"bufferView":1,"byteOffset":0,"count":26620,"componentType":5126,"type":"VEC2"},{"bufferView":2,"byteOffset":0,"count":100908,"componentType":5125,"type":"SCALAR"},{"bufferView":3,"byteOffset":0,"count":656,"componentType":5126,"type":"VEC3","min":[-0.015203576534986496,0.36987820267677307,-0.022768000140786171],"max":[0.015174824744462967,0.38008898496627808,-0.010525199584662914]},{"bufferView":4,"byteOffset":0,"count":656,"componentType":5126,"type":"VEC2"},{"bufferView":5,"byteOffset":0,"count":2880,"componentType":5125,"type":"SCALAR"},{"bufferView":6,"byteOffset":0,"count":3387,"componentType":5126,"type":"VEC3","min":[-0.015152775682508945,0.3178589940071106,-0.021396400406956673],"max":[0.013346023857593536,0.40670821070671082,-0.01235399954020977]},{"bufferView":7,"byteOffset":0,"count":3387,"componentType":5126,"type":"VEC2"},{"bufferView":8,"byteOffset":0,"count":14898,"componentType":5125,"type":"SCALAR"}],"bufferViews":[{"buffer":0,"byteOffset":0,"byteLength":319440,"byteStride":12,"target":34962},{"buffer":0,"byteOffset":319440,"byteLength":212960,"byteStride":8,"target":34962},{"buffer":0,"byteOffset":532400,"byteLength":403632,"target":34963},{"buffer":0,"byteOffset":936032,"byteLength":7872,"byteStride":12,"target":34962},{"buffer":0,"byteOffset":943904,"byteLength":5248,"byteStride":8,"target":34962},{"buffer":0,"byteOffset":949152,"byteLength":11520,"target":34963},{"buffer":0,"byteOffset":960672,"byteLength":40644,"byteStride":12,"target":34962},{"buffer":0,"byteOffset":1001316,"byteLength":27096,"byteStride":8,"target":34962},{"buffer":0,"byteOffset":1028412,"byteLength":59592,"target":34963}],"buffers":[{"byteLength":1088004,"uri":"360_watch_001.bin"}]}